<?xml version="1.0" encoding="UTF-8"?>
<svg xmlns="http://www.w3.org/2000/svg" viewBox="0 0 1480 1560" width="1480" height="1560">
<rect width="100%" height="100%" fill="#ffffff"/>
<rect x="268" y="48" width="944" height="1440" fill="none" stroke="#000000" stroke-width="1.5"/>
<text x="740.0" y="76" text-anchor="middle" font-family="'Times New Roman', Times, serif" font-size="20" font-weight="bold" fill="#000000">WorkWise</text>
<g id="associations">
<line x1="178.0" y1="268.0" x2="371.6" y2="168.9" stroke="#000000" stroke-width="1"/>
<line x1="178.0" y1="1048.0" x2="422.0" y2="173.9" stroke="#000000" stroke-width="1"/>
<line x1="1290.0" y1="648.0" x2="485.9" y2="170.0" stroke="#000000" stroke-width="1"/>
<line x1="178.0" y1="268.0" x2="327.1" y2="244.5" stroke="#000000" stroke-width="1"/>
<line x1="178.0" y1="1048.0" x2="420.9" y2="263.8" stroke="#000000" stroke-width="1"/>
<line x1="1290.0" y1="648.0" x2="494.4" y2="258.6" stroke="#000000" stroke-width="1"/>
<line x1="178.0" y1="268.0" x2="332.8" y2="298.5" stroke="#000000" stroke-width="1"/>
<line x1="178.0" y1="1048.0" x2="419.5" y2="353.8" stroke="#000000" stroke-width="1"/>
<line x1="178.0" y1="268.0" x2="374.9" y2="376.5" stroke="#000000" stroke-width="1"/>
<line x1="178.0" y1="268.0" x2="394.3" y2="463.9" stroke="#000000" stroke-width="1"/>
<line x1="178.0" y1="268.0" x2="404.2" y2="553.0" stroke="#000000" stroke-width="1"/>
<line x1="178.0" y1="1048.0" x2="412.4" y2="623.5" stroke="#000000" stroke-width="1"/>
<line x1="178.0" y1="1048.0" x2="407.8" y2="713.2" stroke="#000000" stroke-width="1"/>
<line x1="178.0" y1="1048.0" x2="400.5" y2="802.7" stroke="#000000" stroke-width="1"/>
<line x1="178.0" y1="268.0" x2="416.6" y2="822.3" stroke="#000000" stroke-width="1"/>
<line x1="178.0" y1="1048.0" x2="387.4" y2="891.3" stroke="#000000" stroke-width="1"/>
<line x1="178.0" y1="268.0" x2="942.0" y2="153.8" stroke="#000000" stroke-width="1"/>
<line x1="178.0" y1="1048.0" x2="1015.0" y2="172.6" stroke="#000000" stroke-width="1"/>
<line x1="178.0" y1="268.0" x2="931.3" y2="233.4" stroke="#000000" stroke-width="1"/>
<line x1="178.0" y1="1048.0" x2="1011.7" y2="262.3" stroke="#000000" stroke-width="1"/>
<line x1="178.0" y1="268.0" x2="932.0" y2="311.3" stroke="#000000" stroke-width="1"/>
<line x1="178.0" y1="1048.0" x2="1007.7" y2="351.8" stroke="#000000" stroke-width="1"/>
<line x1="178.0" y1="268.0" x2="943.6" y2="391.2" stroke="#000000" stroke-width="1"/>
<line x1="178.0" y1="1048.0" x2="1002.8" y2="441.3" stroke="#000000" stroke-width="1"/>
<line x1="178.0" y1="268.0" x2="958.8" y2="474.4" stroke="#000000" stroke-width="1"/>
<line x1="178.0" y1="1048.0" x2="996.7" y2="530.4" stroke="#000000" stroke-width="1"/>
<line x1="178.0" y1="268.0" x2="972.7" y2="560.3" stroke="#000000" stroke-width="1"/>
<line x1="178.0" y1="1048.0" x2="989.0" y2="619.2" stroke="#000000" stroke-width="1"/>
<line x1="1290.0" y1="648.0" x2="1157.3" y2="664.4" stroke="#000000" stroke-width="1"/>
<line x1="1290.0" y1="648.0" x2="1109.8" y2="737.3" stroke="#000000" stroke-width="1"/>
<line x1="1290.0" y1="648.0" x2="1087.1" y2="824.0" stroke="#000000" stroke-width="1"/>
<line x1="1290.0" y1="648.0" x2="1076.2" y2="913.0" stroke="#000000" stroke-width="1"/>
</g>
<g id="use-cases">
<ellipse cx="432" cy="138" rx="118" ry="36" fill="#ffffff" stroke="#000000" stroke-width="1.2"/>
<text x="432" y="142" text-anchor="middle" font-family="'Times New Roman', Times, serif" font-size="11" fill="#000000">Authenticate User</text>
<ellipse cx="432" cy="228" rx="118" ry="36" fill="#ffffff" stroke="#000000" stroke-width="1.2"/>
<text x="432" y="232" text-anchor="middle" font-family="'Times New Roman', Times, serif" font-size="11" fill="#000000">Manage User Profile</text>
<ellipse cx="432" cy="318" rx="118" ry="36" fill="#ffffff" stroke="#000000" stroke-width="1.2"/>
<text x="432" y="312" text-anchor="middle" font-family="'Times New Roman', Times, serif" font-size="11" fill="#000000">Complete Identity</text>
<text x="432" y="326" text-anchor="middle" font-family="'Times New Roman', Times, serif" font-size="11" fill="#000000">Verification</text>
<ellipse cx="432" cy="408" rx="118" ry="36" fill="#ffffff" stroke="#000000" stroke-width="1.2"/>
<text x="432" y="412" text-anchor="middle" font-family="'Times New Roman', Times, serif" font-size="11" fill="#000000">Post and Manage Jobs</text>
<ellipse cx="432" cy="498" rx="118" ry="36" fill="#ffffff" stroke="#000000" stroke-width="1.2"/>
<text x="432" y="502" text-anchor="middle" font-family="'Times New Roman', Times, serif" font-size="11" fill="#000000">Discover Gig Workers</text>
<ellipse cx="432" cy="588" rx="118" ry="36" fill="#ffffff" stroke="#000000" stroke-width="1.2"/>
<text x="432" y="592" text-anchor="middle" font-family="'Times New Roman', Times, serif" font-size="11" fill="#000000">Generate AI Matches</text>
<ellipse cx="432" cy="678" rx="118" ry="36" fill="#ffffff" stroke="#000000" stroke-width="1.2"/>
<text x="432" y="682" text-anchor="middle" font-family="'Times New Roman', Times, serif" font-size="12" fill="#000000">Browse Jobs</text>
<ellipse cx="432" cy="768" rx="118" ry="36" fill="#ffffff" stroke="#000000" stroke-width="1.2"/>
<text x="432" y="772" text-anchor="middle" font-family="'Times New Roman', Times, serif" font-size="12" fill="#000000">Submit Bid</text>
<ellipse cx="432" cy="858" rx="118" ry="36" fill="#ffffff" stroke="#000000" stroke-width="1.2"/>
<text x="432" y="852" text-anchor="middle" font-family="'Times New Roman', Times, serif" font-size="11" fill="#000000">Hire Gig Worker /</text>
<text x="432" y="866" text-anchor="middle" font-family="'Times New Roman', Times, serif" font-size="11" fill="#000000">Run Project</text>
<ellipse cx="1048" cy="138" rx="118" ry="36" fill="#ffffff" stroke="#000000" stroke-width="1.2"/>
<text x="1048" y="142" text-anchor="middle" font-family="'Times New Roman', Times, serif" font-size="12" fill="#000000">Manage Contract</text>
<ellipse cx="1048" cy="228" rx="118" ry="36" fill="#ffffff" stroke="#000000" stroke-width="1.2"/>
<text x="1048" y="232" text-anchor="middle" font-family="'Times New Roman', Times, serif" font-size="12" fill="#000000">Process Payment</text>
<ellipse cx="1048" cy="318" rx="118" ry="36" fill="#ffffff" stroke="#000000" stroke-width="1.2"/>
<text x="1048" y="322" text-anchor="middle" font-family="'Times New Roman', Times, serif" font-size="11" fill="#000000">Exchange Messages</text>
<ellipse cx="1048" cy="408" rx="118" ry="36" fill="#ffffff" stroke="#000000" stroke-width="1.2"/>
<text x="1048" y="412" text-anchor="middle" font-family="'Times New Roman', Times, serif" font-size="12" fill="#000000">Manage Reviews</text>
<ellipse cx="1048" cy="498" rx="118" ry="36" fill="#ffffff" stroke="#000000" stroke-width="1.2"/>
<text x="1048" y="502" text-anchor="middle" font-family="'Times New Roman', Times, serif" font-size="11" fill="#000000">Submit Platform Report</text>
<ellipse cx="1048" cy="588" rx="118" ry="36" fill="#ffffff" stroke="#000000" stroke-width="1.2"/>
<text x="1048" y="582" text-anchor="middle" font-family="'Times New Roman', Times, serif" font-size="11" fill="#000000">View Financial &</text>
<text x="1048" y="596" text-anchor="middle" font-family="'Times New Roman', Times, serif" font-size="11" fill="#000000">Activity Insights</text>
<ellipse cx="1048" cy="678" rx="118" ry="36" fill="#ffffff" stroke="#000000" stroke-width="1.2"/>
<text x="1048" y="672" text-anchor="middle" font-family="'Times New Roman', Times, serif" font-size="12" fill="#000000">Manage Users &</text>
<text x="1048" y="686" text-anchor="middle" font-family="'Times New Roman', Times, serif" font-size="12" fill="#000000">Verifications</text>
<ellipse cx="1048" cy="768" rx="118" ry="36" fill="#ffffff" stroke="#000000" stroke-width="1.2"/>
<text x="1048" y="762" text-anchor="middle" font-family="'Times New Roman', Times, serif" font-size="12" fill="#000000">Oversee Fraud &</text>
<text x="1048" y="776" text-anchor="middle" font-family="'Times New Roman', Times, serif" font-size="12" fill="#000000">Safety</text>
<ellipse cx="1048" cy="858" rx="118" ry="36" fill="#ffffff" stroke="#000000" stroke-width="1.2"/>
<text x="1048" y="852" text-anchor="middle" font-family="'Times New Roman', Times, serif" font-size="12" fill="#000000">Moderate Skills</text>
<text x="1048" y="866" text-anchor="middle" font-family="'Times New Roman', Times, serif" font-size="12" fill="#000000">Taxonomy</text>
<ellipse cx="1048" cy="948" rx="118" ry="36" fill="#ffffff" stroke="#000000" stroke-width="1.2"/>
<text x="1048" y="942" text-anchor="middle" font-family="'Times New Roman', Times, serif" font-size="11" fill="#000000">Admin Analytics,</text>
<text x="1048" y="956" text-anchor="middle" font-family="'Times New Roman', Times, serif" font-size="11" fill="#000000">Reports & Settings</text>
</g>
<g id="actor-Employer">
  <circle cx="178" cy="220" r="14" fill="none" stroke="#000000" stroke-width="1.2"/>
  <line x1="178" y1="234" x2="178" y2="276" stroke="#000000" stroke-width="1.2"/>
  <line x1="156" y1="248" x2="200" y2="248" stroke="#000000" stroke-width="1.2"/>
  <line x1="178" y1="276" x2="160" y2="312" stroke="#000000" stroke-width="1.2"/>
  <line x1="178" y1="276" x2="196" y2="312" stroke="#000000" stroke-width="1.2"/>
  <text x="178" y="282" text-anchor="middle" font-family="'Times New Roman', Times, serif" font-size="15" fill="#000000">Employer</text>
</g>
<g id="actor-Gig-Worker">
  <circle cx="178" cy="1000" r="14" fill="none" stroke="#000000" stroke-width="1.2"/>
  <line x1="178" y1="1014" x2="178" y2="1056" stroke="#000000" stroke-width="1.2"/>
  <line x1="156" y1="1028" x2="200" y2="1028" stroke="#000000" stroke-width="1.2"/>
  <line x1="178" y1="1056" x2="160" y2="1092" stroke="#000000" stroke-width="1.2"/>
  <line x1="178" y1="1056" x2="196" y2="1092" stroke="#000000" stroke-width="1.2"/>
  <text x="178" y="1062" text-anchor="middle" font-family="'Times New Roman', Times, serif" font-size="15" fill="#000000">Gig Worker</text>
</g>
<g id="actor-Admin">
  <circle cx="1290" cy="600" r="14" fill="none" stroke="#000000" stroke-width="1.2"/>
  <line x1="1290" y1="614" x2="1290" y2="656" stroke="#000000" stroke-width="1.2"/>
  <line x1="1268" y1="628" x2="1312" y2="628" stroke="#000000" stroke-width="1.2"/>
  <line x1="1290" y1="656" x2="1272" y2="692" stroke="#000000" stroke-width="1.2"/>
  <line x1="1290" y1="656" x2="1308" y2="692" stroke="#000000" stroke-width="1.2"/>
  <text x="1290" y="662" text-anchor="middle" font-family="'Times New Roman', Times, serif" font-size="15" fill="#000000">Admin</text>
</g>
<text x="740" y="1535" text-anchor="middle" font-family="'Times New Roman', Times, serif" font-size="14" fill="#000000">Figure: Business Use Case Diagram of WorkWise (expanded)</text>
</svg>
